<?xml version="1.0" encoding="UTF-8"?>
<svg id="Capa_2" data-name="Capa 2" xmlns="http://www.w3.org/2000/svg" viewBox="0 0 699.57 328.3">
  <defs>
    <style>
      .cls-1 {
        fill: #678e9b;
      }

      .cls-2 {
        fill: #93278f;
      }
    </style>
  </defs>
  <g id="Capa_1-2" data-name="Capa 1">
    <g>
      <path class="cls-2" d="M84.61,120.38c7.48,5.25,11.23,12.4,11.23,21.45,0,6.26-1.82,11.7-5.45,16.34-1.45,1.85-3.11,3.47-4.98,4.85-2.86,2.11-2.68,6.53.41,8.29s5.51,3.84,7.67,6.47c4.36,5.31,6.53,11.81,6.53,19.52,0,10.05-3.97,17.99-11.9,23.79-7.93,5.81-18.71,8.71-32.34,8.71H5c-2.76,0-5-2.24-5-5v-107.28c0-2.76,2.24-5,5-5h48.95c12.96,0,23.18,2.63,30.66,7.88ZM64.42,156.32c2.85-2.29,4.27-5.5,4.27-9.63s-1.42-7.15-4.27-9.38c-2.85-2.23-6.79-3.29-11.81-3.18h-21.14c-2.76,0-5,2.24-5,5v15.63c0,2.76,2.24,5,5,5h21.14c5.03,0,8.96-1.14,11.81-3.43ZM67.35,204.41c3.57-2.51,5.36-6,5.36-10.47s-1.79-7.59-5.36-10.05c-3.58-2.46-8.49-3.63-14.75-3.52h-21.14c-2.76,0-5,2.24-5,5v17.81c0,2.76,2.24,5,5,5h21.14c6.25,0,11.17-1.26,14.75-3.77Z"/>
      <path class="cls-2" d="M150.79,143.17c3.9-2.25,8.3-3.67,13.21-4.24,2.33-.27,4.38,1.58,4.38,3.93v15.96c0,2.19-1.78,3.95-3.97,3.95-.02,0-.04,0-.05,0-7.93,0-14.21,2.15-18.85,6.45-4.64,4.3-6.95,10.03-6.95,17.17v39.45c0,2.18-1.77,3.95-3.95,3.95h-17.91c-2.18,0-3.95-1.77-3.95-3.95v-82.24c0-2.18,1.77-3.95,3.95-3.95h17.91c2.18,0,3.95,1.77,3.95,3.95v.83c0,3.42,4.1,5.26,6.6,2.92,1.72-1.61,3.6-3.01,5.63-4.18Z"/>
      <path class="cls-2" d="M248.22,151.38c7.54,8.38,11.31,20.05,11.31,35.02,0,.43,0,.85,0,1.25-.02,2.74-2.26,4.95-5,4.95h-52.38c-3.87,0-6.36,4.26-4.31,7.54,1.4,2.25,3.15,4.17,5.23,5.78,4.13,3.18,9.1,4.78,14.91,4.78,4.24,0,8.32-.81,12.23-2.43,2.57-1.07,4.98-2.46,7.21-4.18,2.02-1.55,4.86-1.4,6.65.41l6.78,6.86c2.03,2.06,1.88,5.38-.29,7.3-3.76,3.34-8.06,6.02-12.89,8.04-6.54,2.74-13.82,4.1-21.87,4.1-9.5,0-17.79-1.9-24.88-5.7-7.09-3.8-12.57-9.16-16.42-16.08-3.85-6.92-5.78-14.91-5.78-23.96s1.95-17.23,5.86-24.21c3.91-6.98,9.38-12.4,16.42-16.25,7.04-3.85,15.08-5.78,24.13-5.78,14.52,0,25.55,4.19,33.09,12.57ZM229.4,177.35c3.36,0,5.78-3.26,4.78-6.48-.94-3.02-2.48-5.6-4.64-7.77-3.58-3.57-8.32-5.36-14.24-5.36-5.59,0-10.25,1.76-13.99,5.28-2.19,2.06-3.91,4.55-5.17,7.47-1.39,3.25,1.11,6.85,4.64,6.85h28.61Z"/>
      <path class="cls-2" d="M424.73,228.12v-8.88c-3.02,3.8-6.93,6.7-11.73,8.71-4.8,2.01-10.33,3.02-16.59,3.02-9.5,0-17.03-2.6-22.62-7.79-5.59-5.19-8.38-11.98-8.38-20.36s2.99-15.11,8.96-19.85c5.97-4.75,14.44-7.18,25.38-7.29h24.8v-1.68c0-4.8-1.59-8.52-4.78-11.14-3.18-2.62-7.85-3.94-13.99-3.94-7.03,0-14.46,1.85-22.27,5.55-2.53,1.2-5.54.1-6.7-2.44l-3.86-8.53c-1.13-2.49-.05-5.46,2.44-6.59,5.49-2.5,10.71-4.42,15.64-5.74,6.25-1.68,13.12-2.51,20.61-2.51,12.06,0,21.42,2.85,28.06,8.54,6.64,5.7,10.02,13.63,10.14,23.79l.15,53.85c0,2.74-2.21,4.96-4.94,4.96h-18.67c-.93,0-1.68-.75-1.68-1.68ZM417.53,208.68c3.91-2.57,6.25-5.81,7.04-9.72v-8.04h-20.27c-5.03,0-8.74.81-11.14,2.43-2.4,1.62-3.6,4.22-3.6,7.79s1.26,6.23,3.77,8.29c2.51,2.07,5.95,3.1,10.3,3.1,5.36,0,10-1.28,13.91-3.85Z"/>
      <path class="cls-2" d="M600.48,103.63c2.62,2.68,3.94,6.14,3.94,10.39s-1.31,7.71-3.94,10.39c-2.63,2.68-6.01,4.02-10.14,4.02s-7.35-1.37-9.97-4.11c-2.63-2.74-3.94-6.17-3.94-10.3s1.31-7.71,3.94-10.39c2.62-2.68,5.95-4.02,9.97-4.02s7.51,1.34,10.14,4.02ZM582.44,139.65h15.8c2.76,0,5,2.24,5,5v80.14c0,2.76-2.24,5-5,5h-15.8c-2.76,0-5-2.24-5-5v-80.14c0-2.76,2.24-5,5-5Z"/>
      <path class="cls-2" d="M674.28,224.81v-1.3c0-1.48-1.75-2.21-2.84-1.2-2.51,2.33-5.48,4.21-8.89,5.64-4.8,2.01-10.33,3.02-16.59,3.02-9.5,0-17.03-2.6-22.62-7.79-5.59-5.19-8.38-11.98-8.38-20.36s2.99-15.11,8.96-19.85c5.97-4.75,14.44-7.18,25.38-7.29h23.12c.93,0,1.68-.75,1.68-1.68h0c0-4.8-1.59-8.52-4.78-11.14-3.18-2.62-7.85-3.94-13.99-3.94-7.03,0-14.45,1.85-22.27,5.55-2.53,1.2-5.55.1-6.7-2.45l-3.86-8.52c-1.13-2.5-.05-5.46,2.45-6.6,5.49-2.5,10.7-4.42,15.64-5.74,6.25-1.68,13.12-2.51,20.61-2.51,12.06,0,21.42,2.85,28.06,8.54,6.64,5.7,10.02,13.63,10.14,23.79l.15,53.81c0,2.76-2.23,5-4.98,5h-15.32c-2.75,0-4.98-2.23-4.98-4.98ZM667.08,208.68c3.85-2.53,6.18-5.7,7-9.53.03-.13.04-.26.04-.39v-6.17c0-.93-.75-1.68-1.68-1.68h-18.6c-5.03,0-8.74.81-11.14,2.43-2.4,1.62-3.6,4.22-3.6,7.79s1.26,6.23,3.77,8.29c2.51,2.07,5.95,3.1,10.3,3.1,5.36,0,10-1.28,13.91-3.85Z"/>
      <path class="cls-2" d="M349.94,139.65h-19.36c-.75,0-1.36.61-1.36,1.36v2.11c-6.09-3-12.92-4.69-20.15-4.69-25.15,0-45.54,20.39-45.54,45.54s20.39,45.54,45.54,45.54c6.99,0,13.62-1.58,19.54-4.4l-.02,2.43c-.92,3.72-2.89,6.85-5.9,9.36-4.36,3.63-10.22,5.45-17.59,5.45-8.43,0-16.28-2.07-23.56-6.22-2.48-1.41-5.63-.53-6.96,1.99l-4.83,9.14c-1.27,2.41-.38,5.37,1.98,6.73,4.34,2.48,9.01,4.52,14.01,6.12,6.64,2.12,13.66,3.18,21.03,3.18,9.49,0,17.87-1.71,25.13-5.11,7.26-3.41,12.9-8.27,16.92-14.58,4.02-6.31,6.03-13.71,6.03-22.2v-76.84c0-2.72-2.2-4.92-4.92-4.92ZM309.08,209.29c-13.98,0-25.32-11.33-25.32-25.32,0-13.98,11.33-25.32,25.32-25.32,8.87,0,16.67,4.57,21.19,11.48,2.6,3.98,4.12,8.73,4.12,13.84s-1.52,9.86-4.12,13.84c-4.52,6.91-12.32,11.48-21.19,11.48Z"/>
      <path class="cls-1" d="M560.33,174.7l-55.26,2.1c-6.95.26-11.01,7.96-7.31,13.84l9.56,15.19-2.75.84c-.28.08-.58.17-.89.27l-1.9.58c-1.24.32-2.35.49-3.33.49-2.46,0-4.41-.81-5.86-2.43-1.45-1.62-2.18-4.05-2.18-7.29v-77.04c0-.12-.03-.23-.03-.35.15-.78.22-1.57.22-2.36h14.22c6.96,0,11.31-7.53,7.83-13.56l-27.65-47.89c-3.48-6.03-12.18-6.03-15.65,0l-27.65,47.89c-3.48,6.03.87,13.56,7.83,13.56h15.59c0,.27.02.54.04.81-.24.59-.38,1.22-.38,1.9v78.71c0,10.05,2.62,17.73,7.88,23.04,5.25,5.31,11.9,7.96,19.94,7.96,4.48,0,8.95-.83,13.43-2.48l12.03-5.6,9.16,14.56c3.7,5.89,12.39,5.56,15.64-.59l25.81-48.9c3.25-6.15-1.38-13.51-8.34-13.25Z"/>
      <g>
        <path class="cls-1" d="M347.48,108.46c-1.38,0-2.79-.3-4.12-.92-4.87-2.28-6.97-8.08-4.68-12.94,13.05-27.86,33.63-51.46,59.49-68.24C424.73,9.11,455.58,0,487.38,0c47.82,0,93.16,20.8,124.41,57.06,3.51,4.07,3.05,10.22-1.02,13.73-4.07,3.51-10.22,3.05-13.73-1.02-27.54-31.97-67.51-50.3-109.66-50.3-28.03,0-55.22,8.03-78.62,23.21-22.81,14.8-40.95,35.61-52.46,60.17-1.66,3.53-5.16,5.61-8.82,5.61Z"/>
        <path class="cls-1" d="M487.38,328.3c-45.21,0-88.89-18.94-119.82-51.96-3.67-3.92-3.47-10.08.45-13.76,3.92-3.68,10.08-3.47,13.76.45,27.67,29.54,65.17,45.8,105.61,45.8s77.94-16.27,105.61-45.8c3.68-3.92,9.84-4.12,13.76-.45,3.92,3.67,4.12,9.83.45,13.76-30.93,33.02-74.6,51.96-119.82,51.96Z"/>
      </g>
    </g>
  </g>
</svg>